{"title":"VANish.2015.720p.BRRip.x264.AC3-WiNTeaM","uid":11679798,"size":2161081837,"categoryP":"video","categoryS":"movies","magnet":"?xt=urn:btih:3bc644a2baae0463ac7184ec3bf4607e4d31a415&amp;dn=VANish.2015.720p.BRRip.x264.AC3-WiNTeaM&amp;tr=udp%3A%2F%2Ftracker.openbittorrent.com%3A80&amp;tr=udp%3A%2F%2Fopen.demonii.com%3A1337&amp;tr=udp%3A%2F%2Ftracker.coppersurfer.tk%3A6969&amp;tr=udp%3A%2F%2Fexodus.desync.com%3A6969","seeders":0,"leechers":0,"uploader":"TvTeam","files":13,"time":1423031684,"description":" &lt;a href=&quot;https://www.torrenting.com&quot; rel=&quot;nofollow&quot; target=&quot;_NEW&quot;&gt;https://www.torrenting.com&lt;/a&gt;\n\nSign up is OPEN - for the time being. Come and have fun.\n\n---------------------------------------------------------------------\n\n.__          ___ _   _ _______         __  __ \n         / (_)  | |__   __|       |  /  |\n    /  / / _|  | |  | | ___  __ _|   / |\n   /  / / | | . ` |  | |/ _ / _` | |/| |\n     /  /  | | |  |  | |  __/ (_| | |  | |\n    /  /   |_|_| _|  |_|___|__,_|_|  |_|      \n                                       since 2013\n_____________________________________________\nProudly Presents:\n\nVANish.2015.720p.BRRip.x264.AC3-WiNTeaM\n\nFormat                                   : Matroska\nFormat version                           : Version 4 / Version 2\nFile size                                : 1.99 GiB\nDuration                                 : 1h 19mn\nOverall bit rate                         : 3 586 Kbps\nMovie name                               : VANish.2015.720p.BRRip.x264.AC3-WiNTeaM\nEncoded date                             : UTC 2015-02-03 19:21:20\nWriting application                      : mkvmerge v7.5.0 ('Glass Culture') 64bit built on Jan  4 2015 16:48:44\nWriting library                          : libebml v1.3.1 + libmatroska v1.4.2\nRipped by                                : Mikas@WiNTeaM\nVideo Source                             : VANish.2015.1080p.BluRay.x264-ROVERS\n_STATISTICS_WRITING_APP                  : mkvmerge v7.5.0 ('Glass Culture') 64bit built on Jan  4 2015 16:48:44\n_STATISTICS_WRITING_DATE_UTC             : 2015-02-03 19:21:20\n_STATISTICS_TAGS                         : BPS DURATION NUMBER_OF_FRAMES NUMBER_OF_BYTES\nDURATION                                 : 01:11:34.922000000\nNUMBER_OF_FRAMES                         : 1341\nNUMBER_OF_BYTES                          : 40272\n\nVideo\nID                                       : 1\nFormat                                   : AVC\nFormat/Info                              : Advanced Video Codec\nFormat profile                           : &lt;a class=&quot;__cf_email__&quot; href=&quot;/cdn-cgi/l/email-protection&quot; data-cfemail=&quot;2c64454b446c6018021d&quot;&gt;[email&amp;#160;protected]&lt;/a&gt;&lt;script cf-hash='f9e31' type=&quot;text/javascript&quot;&gt;\n/* &lt;![CDATA[ */!function(){try{var t=&quot;currentScript&quot;in document?document.currentScript:function(){for(var t=document.getElementsByTagName(&quot;script&quot;),e=t.length;e--;)if(t[e].getAttribute(&quot;cf-hash&quot;))return t[e]}();if(t&amp;&amp;t.previousSibling){var e,r,n,i,c=t.previousSibling,a=c.getAttribute(&quot;data-cfemail&quot;);if(a){for(e=&quot;&quot;,r=parseInt(a.substr(0,2),16),n=2;a.length-n;n+=2)i=parseInt(a.substr(n,2),16)^r,e+=String.fromCharCode(i);e=document.createTextNode(e),c.parentNode.replaceChild(e,c)}}}catch(u){}}();/* ]]&gt; */&lt;/script&gt;\nFormat settings, CABAC                   : Yes\nFormat settings, ReFrames                : 12 frames\nCodec ID                                 : V_MPEG4/ISO/AVC\nDuration                                 : 1h 19mn\nBit rate                                 : 2 950 Kbps\nWidth                                    : 1 280 pixels\nHeight                                   : 536 pixels\nDisplay aspect ratio                     : 2.40:1\nFrame rate mode                          : Constant\nFrame rate                               : 23.976 fps\nColor space                              : YUV\nChroma subsampling                       : 4:2:0\nBit depth                                : 8 bits\nScan type                                : Progressive\nBits/(Pixel*Frame)                       : 0.179\nStream size                              : 1.59 GiB (80%)\nWriting library                          : x264 core 144 r2525 40bb568\nEncoding settings                        : cabac=1 / ref=12 / deblock=1:-3:-3 / analyse=0x3:0x133 / me=umh / subme=10 / psy=1 / psy_rd=1.00:0.07 / mixed_ref=1 / me_range=64 / chroma_me=1 / trellis=2 / 8x8dct=1 / cqm=0 / deadzone=21,11 / fast_pskip=1 / chroma_qp_offset=-3 / threads=12 / lookahead_threads=3 / sliced_threads=0 / nr=0 / decimate=1 / interlaced=0 / bluray_compat=0 / constrained_intra=0 / bframes=10 / b_pyramid=2 / b_adapt=2 / b_bias=0 / direct=3 / weightb=1 / open_gop=0 / weightp=2 / keyint=240 / keyint_min=23 / scenecut=40 / intra_refresh=0 / rc_lookahead=240 / rc=2pass / mbtree=1 / bitrate=2950 / ratetol=1.0 / qcomp=0.60 / qpmin=0 / qpmax=69 / qpstep=4 / cplxblur=20.0 / qblur=0.5 / vbv_maxrate=40000 / vbv_bufsize=30000 / nal_hrd=none / filler=0 / ip_ratio=1.40 / aq=1:1.00\nDefault                                  : Yes\nForced                                   : No\nColor primaries                          : BT.709\nTransfer characteristics                 : BT.709\nMatrix coefficients                      : BT.709\nColor range                              : Full\n\nAudio\nID                                       : 2\nFormat                                   : AC-3\nFormat/Info                              : Audio Coding 3\nMode extension                           : CM (complete main)\nFormat settings, Endianness              : Big\nCodec ID                                 : A_AC3\nDuration                                 : 1h 19mn\nBit rate mode                            : Constant\nBit rate                                 : 640 Kbps\nChannel(s)                               : 6 channels\nChannel positions                        : Front: L C R, Side: L R, LFE\nSampling rate                            : 48.0 KHz\nBit depth                                : 16 bits\nCompression mode                         : Lossy\nStream size                              : 363 MiB (18%)\nTitle                                    : English\nLanguage                                 : English\nDefault                                  : Yes\nForced                                   : No\n\nText\nID                                       : 3\nFormat                                   : UTF-8\nCodec ID                                 : S_TEXT/UTF8\nCodec ID/Info                            : UTF-8 Plain Text\nTitle                                    : English\nLanguage                                 : English\nDefault                                  : No\nForced                                   : No\n\nMenu\n00:00:00.000                             : en:00:00:00.000\n00:02:54.174                             : en:00:02:54.174\n00:07:51.471                             : en:00:07:51.471\n00:11:52.712                             : en:00:11:52.712\n00:16:47.006                             : en:00:16:47.006\n00:20:36.235                             : en:00:20:36.235\n00:26:41.600                             : en:00:26:41.600\n00:30:24.823                             : en:00:30:24.823\n00:37:49.267                             : en:00:37:49.267\n00:46:38.796                             : en:00:46:38.796\n00:52:12.129                             : en:00:52:12.129\n00:58:04.481                             : en:00:58:04.481\n01:04:35.872                             : en:01:04:35.872\n01:09:24.786                             : en:01:09:24.786\n01:12:46.362                             : en:01:12:46.362\n    ...................................................................\n\n    Ripper Notes.........: Thanks to ROVERS\n\n                           Seed, Share, but don't forget to keep the credits ;)\n\n                           Respect our work\n\n    Group Notes..........: We are currently Looking for Portuguese Android Modders.\n                           If you are interested, please contact us @ winteam [@] inbox [dot] com\n\n                           Neste momento procuramos Android Modders Portugueses.\n                           Pedimos aos interessados que nos contactem atraves do mail:  winteam [@] inbox &gt;&gt;\n[dot] com\n\n    ...................................................................\n\n    Group Greets.........: FLAWL3SS * ViSiON * D-ZON3 * CHD * DAA\n                           AMIABLE * DIAMOND * FraMeSToR * LEGiON\n                           CORE * KRaLiMaRKo * iNViNCiBLE * SPARKS\n\n    ___________________________________________________________________\n\n                     *** WiNTeaM  / Since 2013 ***","torrent":{"xt":"urn:btih:3bc644a2baae0463ac7184ec3bf4607e4d31a415","amp;dn":"VANish.2015.720p.BRRip.x264.AC3-WiNTeaM","amp;tr":["udp%3A%2F%2Ftracker.openbittorrent.com%3A80","udp%3A%2F%2Fopen.demonii.com%3A1337","udp%3A%2F%2Ftracker.coppersurfer.tk%3A6969","udp%3A%2F%2Fexodus.desync.com%3A6969"],"infoHash":"3bc644a2baae0463ac7184ec3bf4607e4d31a415","infoHashBuffer":{"type":"Buffer","data":[59,198,68,162,186,174,4,99,172,113,132,236,59,244,96,126,77,49,164,21]},"announce":[],"urlList":[]}}